<?xml version="1.0" standalone="no"?>
<!DOCTYPE svg PUBLIC "-//W3C//DTD SVG 20010904//EN"
 "http://www.w3.org/TR/2001/REC-SVG-20010904/DTD/svg10.dtd">
<svg version="1.0" xmlns="http://www.w3.org/2000/svg"
 width="87.000000pt" height="119.000000pt" viewBox="0 0 87.000000 119.000000"
 preserveAspectRatio="xMidYMid meet">

<g transform="translate(0.000000,119.000000) scale(0.100000,-0.100000)"
fill="#000000" stroke="none">
<path d="M387 1003 c-3 -5 -12 -35 -22 -68 -9 -33 -20 -64 -25 -70 -4 -5 -11
-28 -15 -50 -4 -22 -11 -45 -15 -50 -5 -6 -12 -26 -15 -45 -3 -18 -9 -38 -12
-43 -4 -7 1 -7 13 -2 10 4 47 18 82 31 34 13 67 26 72 29 12 8 13 -45 1 -77
-4 -13 -11 -48 -15 -78 l-6 -55 21 45 c20 45 32 73 64 160 9 25 24 60 32 78 9
18 13 35 11 37 -3 3 -43 -13 -89 -34 -46 -22 -86 -38 -88 -35 -3 3 2 19 11 37
16 31 78 184 78 193 0 7 -79 4 -83 -3z"/>
</g>
</svg>
